/* XPM */
static char *_e5f3e53988d4dfad7915d6d6e809b99[] = {
/* columns rows colors chars-per-pixel */
"32 32 119 2 ",
"   c None",
".  c #EC1D3D",
"X  c #EF3B2E",
"o  c #F53C2E",
"O  c #EC233E",
"+  c #ED2C3B",
"@  c #EF3535",
"#  c #EF3E35",
"$  c #EE3439",
"%  c #F13631",
"&  c #FF5E0C",
"*  c #FF5713",
"=  c #FA5C1A",
"-  c #FF670E",
";  c #FF6316",
":  c #EF4E29",
">  c #F2452E",
",  c #F04A2E",
"<  c #EF572E",
"1  c #F75727",
"2  c #F35C27",
"3  c #FD5D20",
"4  c #F0532D",
"5  c #F1592A",
"6  c #EF4534",
"7  c #EF4C31",
"8  c #F04C30",
"9  c #F46523",
"0  c #F0622B",
"q  c #F27725",
"w  c #965C6C",
"e  c #C85F41",
"r  c #F38C1E",
"t  c #F4911D",
"y  c #F5991A",
"u  c #F89E19",
"i  c #F5AA16",
"p  c #F8AB16",
"a  c #F6A318",
"s  c #E9B81C",
"d  c #F6B016",
"f  c #F9B614",
"g  c #F7BA11",
"h  c #EF8F20",
"j  c #F58C20",
"k  c #E4A922",
"l  c #F7CC0E",
"z  c #F9CB0F",
"x  c #FAD30C",
"c  c #F7C813",
"v  c #F8D511",
"b  c #FBDD15",
"n  c #FBD91C",
"m  c #DBE11D",
"M  c #D6E91F",
"N  c #DDFE15",
"B  c #DCF119",
"V  c #EFE70D",
"C  c #FCE306",
"Z  c #FAEC05",
"A  c #FBE40E",
"S  c #F4EC0A",
"D  c #FBED0E",
"F  c #EEF60B",
"G  c #E6FF0F",
"H  c #EDFE0A",
"J  c #F5F307",
"K  c #FCF202",
"L  c #F4FF04",
"P  c #FDFE00",
"I  c #FAF50B",
"U  c #FBFF09",
"Y  c #E5E515",
"T  c #EBE612",
"R  c #ECE810",
"E  c #E1E418",
"W  c #FAE213",
"Q  c #FFEA14",
"!  c #E8F111",
"~  c #D8DE20",
"^  c #FBD725",
"/  c #FBD823",
"(  c #FBD72C",
")  c #FBD533",
"_  c #FDDC33",
"`  c #FCD53A",
"'  c #FFDB3D",
"]  c #D8E020",
"[  c #FBD344",
"{  c #FCD24B",
"}  c #FDCF5D",
"|  c #FCD153",
" . c #FDD05A",
".. c #FDC566",
"X. c #FDCD63",
"o. c #FDCB6B",
"O. c #FEC775",
"+. c #FDC874",
"@. c #FEC97E",
"#. c #1C5ABB",
"$. c #395AA7",
"%. c #355AA9",
"&. c #395CAA",
"*. c #214CB8",
"=. c #2C55B6",
"-. c #275AB5",
";. c #315CBB",
":. c #3D60A8",
">. c #5E5C8D",
",. c #475B9C",
"<. c #5A5791",
"1. c #655D87",
"2. c #0D3DCB",
"3. c #053FD4",
"4. c #093FD1",
"5. c #003BE5",
"6. c #1040CB",
"7. c #095BCA",
"8. c #FED39A",
/* pixels */
"                                                                ",
"                                                                ",
"                                                                ",
"                                                                ",
"                                                                ",
"                                                                ",
"                                  u f x K P P S J S R T m m     ",
"                      D v d t q 0 6 O . 4 y C P J V R Y m m     ",
"                b b W A c c Z P P P x r + . 4 i L F Y E m ~     ",
"            [ / b b W A I P P P P P P P x 5 @ % j H F E m       ",
"        } | ` n b W W S L K f a p C P K P Z 4 : @ h G E m       ",
"      o.} { ) n b W W U v 2 @ + O $ f P Z P l > , o s N ~       ",
"    O.o. .{ ( b b W I A < @ < 7 6 + . z P P l 4 4 > 0 B ]       ",
"    +.X.| [ / b W W U t X 5 4 7 6 6 + 0 l r , 4 2 5 o k         ",
"  8...X.| ` / b W D I 9 4 4 4 7 6 6 6 6 # # < 2 5 5 4 1         ",
"  @.o.} { ) n b K P   , 5 5 4 : 6 # 6 8 , < 5 5 5 5 0 4         ",
"  O.o. .{ ) b U       = 2 4 4 7 6 # 6 8 4 < 5 5 5 5 5 5         ",
"  +.X. .[ W       5.<.; 2 < 4 7 6 # 6 8 7 4 5 5 5 5 5 5         ",
"    X.| _     6.=.#.1.; 2 < 4 7 6 # 6 8 4 4 5 5 5 5 5 5         ",
"    X.{     6.&.&.-.,.9 3 5 4 7 6 # 6 7 7 4 5 5 5 5 5 5         ",
"     .[     ;.&.&.%.#.e & < 4 7 6 6 6 8       5 5 5 5           ",
"      '     =.&.&.&.#.>.3 1 4 7 6 # 6         5 5 5 5           ",
"      ' Q   6.:.&.%.$.7.w * 4 8 6 6           5 5 5             ",
"        Q     2.$.&.                        < 5 5 5             ",
"                4.%.                      4 5 5 4               ",
"                  *.                  8 4 4 5                   ",
"                            4 8 6 6 6 8 7 <                     ",
"                                                                ",
"                                                                ",
"                                                                ",
"                                                                ",
"                                                                "
};
