/* XPM */
static char *d8727793bfec4764fb4763aac210d590[] = {
/* columns rows colors chars-per-pixel */
"16 16 88 1 ",
"  c None",
". c #EC1E3F",
"X c #F31A36",
"o c #ED2E3C",
"O c #EF3933",
"+ c #EF3936",
"@ c #FF5416",
"# c #FD5E1E",
"$ c #FF6010",
"% c #EE4E2C",
"& c #F54C24",
"* c #F24D2B",
"= c #F1492E",
"- c #F04E2D",
"; c #F04E2F",
": c #FA5426",
"> c #F2512B",
", c #F1552A",
"< c #F1542B",
"1 c #F2532D",
"2 c #F0542D",
"3 c #F15A29",
"4 c #F1592A",
"5 c #F1592B",
"6 c #F15A2A",
"7 c #F15F28",
"8 c #EF4331",
"9 c #EF4235",
"0 c #EF4037",
"q c #EF4236",
"w c #EF4534",
"e c #EF4634",
"r c #F04F30",
"t c #F26E25",
"y c #F36E28",
"u c #F47822",
"i c #F27825",
"p c #8E5C6E",
"a c #F5AC17",
"s c #ED8025",
"d c #F58D20",
"f c #DEDF1B",
"g c #FAC50F",
"h c #FACB0D",
"j c #FCDC07",
"k c #F7D60B",
"l c #F8D70B",
"z c #F8DD0F",
"x c #FBDD10",
"c c #FBDB15",
"v c #DAF01B",
"b c #D4FF1A",
"n c #FBE606",
"m c #FFEA00",
"M c #FFEF03",
"N c #F9E008",
"B c #FAE40F",
"V c #FAE50F",
"C c #EBFB0C",
"Z c #F6F505",
"A c #F8FE02",
"S c #FFFC00",
"D c #FDFF00",
"F c #FEFF00",
"G c yellow",
"H c #FAFA08",
"J c #FBFC0A",
"K c #EDE510",
"L c #E9EA11",
"P c #E1E319",
"I c #FBD528",
"U c #FBD631",
"Y c #FCD33F",
"T c #FFE32D",
"R c #FCD04B",
"E c #FCCF56",
"W c #FFD853",
"Q c #FDCE63",
"! c #FDCB6C",
"~ c #FDCA74",
"^ c #FEC97B",
"/ c #1B4CBF",
"( c #145CBF",
") c #224CB8",
"_ c #2551BF",
"` c #584794",
"' c #535D93",
"] c #0446CC",
/* pixels */
"                ",
"                ",
"                ",
"          hDAKP ",
"     Bzlgd;uZCf ",
"   YcVHNjGn=<Lv ",
"  QUxJaO.yFkXsb ",
" ^EISm%89oit>*  ",
" ~RM  &2eq+-7,  ",
" !T  `$1wqr434  ",
" W  ]'#:wq  34  ",
"   _)(p@w0  44  ",
"    /      66   ",
"         9r5    ",
"                ",
"                "
};
