/* XPM */
static char *_005437c1a2a4e53deeb50d71af3b572[] = {
/* columns rows colors chars-per-pixel */
"64 64 142 2 ",
"   c None",
".  c #EC1E3E",
"X  c #F43B2F",
"o  c #EC253E",
"O  c #ED2B3B",
"+  c #EE3535",
"@  c #EF3E35",
"#  c #ED3239",
"$  c #F03B31",
"%  c #FF5C0C",
"&  c #FE5919",
"*  c #FF620A",
"=  c #FF6312",
"-  c #F6651C",
";  c #FC631D",
":  c #EF4E2C",
">  c #F1452C",
",  c #F04D2E",
"<  c #EF5C2B",
"1  c #F15527",
"2  c #F25E26",
"3  c #F0542D",
"4  c #F1592A",
"5  c #EF4434",
"6  c #EF4B32",
"7  c #F04130",
"8  c #F04E30",
"9  c #EF5030",
"0  c #C9613F",
"q  c #D86039",
"w  c #E4622D",
"e  c #F36323",
"r  c #F06B27",
"t  c #F1632A",
"y  c #F36B29",
"u  c #F27424",
"i  c #F37C23",
"p  c #EA0747",
"a  c #EA0B46",
"s  c #EB1442",
"d  c #EC1C40",
"f  c #A35F5B",
"g  c #B15D56",
"h  c #C25C47",
"j  c #F3821F",
"k  c #F48B1E",
"l  c #F4921D",
"z  c #F59C1A",
"x  c #E9A31F",
"c  c #F5A517",
"v  c #F6AC16",
"b  c #F5A418",
"n  c #F0AF18",
"m  c #EDBE17",
"M  c #F4B716",
"N  c #F8B314",
"B  c #F7BB14",
"V  c #F9BE11",
"C  c #F48321",
"Z  c #F58A21",
"A  c #E79823",
"S  c #E89F22",
"D  c #F6CC0E",
"F  c #F9CC0D",
"G  c #F9D40C",
"H  c #F8DF0F",
"J  c #F7C411",
"K  c #F7CF11",
"L  c #EAD814",
"P  c #F9D412",
"I  c #FBDD16",
"U  c #FAD71C",
"Y  c #FBDA1A",
"T  c #DCE11D",
"R  c #D7ED1D",
"E  c #DDEF19",
"W  c #DDFF15",
"Q  c #DAF51A",
"!  c #EEEA0E",
"~  c #FBE606",
"^  c #F7EE07",
"/  c #FAEE05",
"(  c #FAE70E",
")  c #F3EB0A",
"_  c #FAEB0C",
"`  c #EBFF0B",
"'  c #FCF102",
"]  c #F3FF03",
"[  c #FDFE01",
"{  c #F9F20A",
"}  c #FAFD0A",
"|  c #E5E516",
" . c #E9E612",
".. c #E2EC16",
"X. c #ECE810",
"o. c #E1E319",
"O. c #FAE312",
"+. c #FAE810",
"@. c #E4F712",
"#. c #E5FD11",
"$. c #D7DF21",
"%. c #FAD526",
"&. c #FBD823",
"*. c #FBD72C",
"=. c #FBD829",
"-. c #FBD633",
";. c #FBD53C",
":. c #D7E020",
">. c #D8E020",
",. c #FBD343",
"<. c #FCD24C",
"1. c #FDCF5D",
"2. c #FCD154",
"3. c #FDD059",
"4. c #FDC265",
"5. c #FDCD64",
"6. c #FDCB6B",
"7. c #FEC472",
"8. c #FDC973",
"9. c #FEC879",
"0. c #1658BE",
"q. c #1E5BBC",
"w. c #2851A4",
"e. c #2F59AD",
"r. c #3A5BA5",
"t. c #365AA9",
"y. c #395DAB",
"u. c #254EB7",
"i. c #204AB9",
"p. c #2559B5",
"a. c #295BB4",
"s. c #205ABA",
"d. c #3058B4",
"f. c #3D61AB",
"g. c #4B5C9B",
"h. c #575C90",
"j. c #6C5D84",
"k. c #5071B5",
"l. c #1359C1",
"z. c #6C88BF",
"x. c #FED59B",
"c. c #FED7A1",
/* pixels */
"                                                                                                                                ",
"                                                                                                                                ",
"                                                                                                                                ",
"                                                                                                                                ",
"                                                                                                                                ",
"                                                                                                                                ",
"                                                                                                                                ",
"                                                                                                                                ",
"                                                                                                                                ",
"                                                                                                                                ",
"                                                                                                                                ",
"                                                                            [ [ [ [ ' ' ' / ' / ^ ^ ) ) ! X. . .o.o.T T         ",
"                                                          ' G v l C y y y i l v F ' [ [ ' / ' ^ ^ ^ ) X.X.X. .| o.o.T >.        ",
"                                                ( } } B u 8 O . s a a p d o o # 7 4 l G [ [ ^ ' ^ ^ ) ! ! X. .| o.o.T >.        ",
"                                        O.O.O.+.+.M j u i b N J J N z C 3 # o 5 8 @ # 7 i D [ ] ) ) ) ! X.X. .| o.T T >.        ",
"                                  Y O.Y O.O.+.O.J b J [ [ [ [ [ [ [ [ [ [ F Z 7 O 8 3 9 @ X j ^ [ ) ) ! X. .| | o.o.T >.        ",
"                              =.Y I I O.O.O.O.P ( } } / / / ' / ' ' ' ' [ [ [ ~ Z + @ 1 4 3 + 1 D ] ! ! X. .o.| T T $.          ",
"                          ;.-.&.I I I I O.O.O._ _ ( ^ ^ / / ' / ' ' ' ' ' ' ' [ [ J : @ 4 < 2 > @ M ] !  . . .| o.T T           ",
"                      2.<.;.-.&.I Y I O.O.O.+.( ( ^ _ ^ / ' [ [ [ [ ' ' ' / ' / ' [ / t @ 4 < 4 : X n ` X. .o.| o.T >.          ",
"                  1.3.<.,.;.=.U I I I O.O.+.+.( ( ( ^ [ [ [ / ~ / [ [ [ ' ' ' / ' / [ ' 3 > 2 4 < : $ m `  .o.o.T T :.          ",
"                5.1.3.<.,.;.=.U I I I O.O.+.( ( ( { [ ~ b i 4 3 3 t Z F [ [ / ' ' ' / [ G > 9 4 1 2 > > L #.o.o.T T             ",
"              6.5.1.2.<.;.-.&.I I I I O.O.+.( ( { [ n : # + 5 5 $ O d o C [ [ / ' ^ ^ ' [ z @ 4 4 4 4 > r @...o.T T             ",
"            8.6.5.1.2.,.;.-.&.I I I I O.O.+.O.^ [ l + 7 3 9 8 6 6 5 7 @ s t [ [ / / / / ] ~ 4 , 4 4 4 4 X x #.T T :.            ",
"          9.6.5.1.1.<.,.;.-.U I Y O.O.O.O.+.( } b $ 3 4 3 3 8 6 6 5 5 @ 5 . C [ ' ' / ^ [ [ C 7 4 3 4 4 > 4 o.E T :.            ",
"          8.6.5.5.3.<.,.;.=.Y I I O.O.O.O.( } K > 3 < 3 3 3 8 6 5 5 5 @ 5 5 o B [ ' [ [ / l 3 3 4 4 4 4 2 X S W :.$.            ",
"        9.8.6.5.3.2.<.,.-.&.Y I I O.Y O.+.( } j > 2 4 3 3 9 8 8 6 6 5 5 @ 5 # 6 [ [ ^ b 3 + 3 2 4 4 4 4 4 > t Q R               ",
"        9.8.6.5.3.2.,.;.-.&.Y I I I O.+.+.} F 1 4 2 4 3 3 3 8 6 6 5 5 @ 5 5 6 # l b 4 + : 4 4 4 4 4 4 4 4 4 > A                 ",
"      c.4.6.6.1.3.2.,.;.-.U I I O.I O.+.( } c > 2 2 4 4 3 9 9 8 6 5 5 5 5 5 6 8 + # 7 3 4 4 4 4 4 4 4 4 4 4 3                   ",
"      x.4.6.5.5.3.<.,.;.*.Y I I Y O.O.( ( } k : 2 2 4 3 3 9 9 8 5 5 5 @ 5 5 5 6 8 , 3 3 4 4 4 1 3 4 4 4 4 4 4 3                 ",
"      7.9.6.5.3.2.<.,.-.=.Y I I I O.O.O.} ( e 1 2 4 4 4 3 9 9 6 6 5 5 @ 5 5 6 8 8 , 3 3 4 4 4 4 4 4 4 4 4 4 4 4                 ",
"      9.6.6.5.1.2.<.;.-.&.I Y I O.O.(       , e 2 2 4 4 3 9 9 6 6 5 5 @ 5 5 5 8 8 8 3 3 4 4 4 4 4 4 4 4 4 4 4 4                 ",
"      9.8.5.5.3.2.,.;.-.U I I I O.          - e 2 < 4 3 3 3 8 8 6 5 5 5 5 5 6 6 8 8 , 3 4 4 4 4 4 4 4 4 4 4 4 4                 ",
"      9.8.5.5.3.<.,.;.*.U U O.              = 2 t 4 4 4 3 9 8 6 6 5 5 @ 5 5 6 6 8 3 3 3 4 4 4 4 4 4 4 4 4 4 4 4                 ",
"      8.6.5.1.2.<.,.;.=.U             t.q.g.; ; e 4 4 3 3 9 8 6 8 5 5 @ 5 5 6 6 8 8 3 3 4 4 3 4 4 4 4 4 4 4 4 4                 ",
"      8.6.5.1.2.<.;.-.=.          y.y.y.s.h.; ; 2 2 4 3 3 3 8 8 6 5 5 @ 5 5 5 6 8 8 8 4 4 4 4 4 4 4 4 4 4 4 4 4                 ",
"      6.6.5.3.2.<.;.-.        d.f.y.y.y.p.g.e ; 2 4 4 4 3 9 8 8 6 5 5 @ 5 5 6 6 8 8 8 8 4 4 4 4 4 4 4 4 4 4 4 4                 ",
"        6.5.2.<.,.;.        f.f.y.y.y.y.a.r.w ; 2 4 4 4 3 9 9 8 6 5 5 @ 5 5 6 6 8 8 8 4 4 4 4 4 4 4 4 4 4 4 4 4                 ",
"        5.1.3.<.,.-.      f.f.d.y.y.y.t.t.p.0 * 2 4 4 4 3 9 9 8 6 5 5 @ 5 5 6 6 8 8 8 4 3 4 4 4 4 3 4 4 4 4 4 4                 ",
"        5.1.2.<.;.        f.f.f.y.t.y.t.t.l.f * t 4 4 3 3 3 8 6 6 5 5 @ 5 5 5 6 8       4 4 4 4 4 4 4 4 4 4 4 4                 ",
"          1.2.<.;.      z.w.y.y.y.y.y.t.t.0.j.= 2 t 4 3 3 9 8 8 6 5 5 @ 5 5 6 6             4 4 4 4 4 4 4 4 4                   ",
"          3.2.,.        k.t.f.f.y.y.t.t.t.t.p.q = 4 4 4 3 9 9 8 6 6 5 @ 5 5 5 6               4 4 4 4 4 4 4 4                   ",
"            <.,.        t.f.d.f.y.y.y.t.t.r.l.j.* 2 4 3 3 9 9 6 6 5 5 @ 5 5 6               4 4 4 4 4 4 4 4                     ",
"              ,.-.      f.f.y.y.y.y.t.t.t.t.t.l.g % 4 3 3 9 8 6 6 5 5 @ 5 5                 4 4 4 4 4 4 4 4                     ",
"              ;.-.        f.y.y.t.y.t.t.t.t.t.p.q.h & 4 3 3 9 8 6 5 5 @ 5 5                 4 4 4 4 4 4 4                       ",
"                -.&.      f.y.y.y.r.t.t.t.t.t.        3 3 9 8 8 5 5 5 5                   t 4 4 4 4 4 4 4                       ",
"                  &.        g.y.t.t.t.t.t.                8 8 8 6 5                     3 < 4 4 4 4 4 4                         ",
"                    &.        y.y.t.t.t.                                                3 3 < 4 4 4 4                           ",
"                      O.        y.y.t.t.                                              9 < < < 3 4 4                             ",
"                        I         u.f.t.                                            3 3 4 4 4 4 4                               ",
"                                    i.r.t.                                      8 8 8 3 4 4 4 4                                 ",
"                                        t.                                  5 8 8 8 3 3 4 4                                     ",
"                                                    4 3 3 3 8 8 8 5 5 5 5 5 5 8 8 8 8 3                                         ",
"                                                          3 8 8 5 5 5 5 5 5 5 8 8 8                                             ",
"                                                                    5 @ 7 8                                                     ",
"                                                                                                                                ",
"                                                                                                                                ",
"                                                                                                                                ",
"                                                                                                                                ",
"                                                                                                                                ",
"                                                                                                                                ",
"                                                                                                                                ",
"                                                                                                                                ",
"                                                                                                                                ",
"                                                                                                                                "
};
